<?xml version="1.0" encoding="UTF-8"?>
<svg width="24px" height="30px" viewBox="0 0 24 30" version="1.1" xmlns="http://www.w3.org/2000/svg" xmlns:xlink="http://www.w3.org/1999/xlink">
    <!-- Generator: Sketch 49.3 (51167) - http://www.bohemiancoding.com/sketch -->
    <title>Group 2 Copy</title>
    <desc>Created with Sketch.</desc>
    <defs>
        <linearGradient x1="50%" y1="-26.7963015%" x2="50%" y2="100%" id="linearGradient-1">
            <stop stop-color="#98ACFF" offset="0%"></stop>
            <stop stop-color="#4353FF" offset="100%"></stop>
        </linearGradient>
    </defs>
    <g id="Page-1" stroke="none" stroke-width="1" fill="none" fill-rule="evenodd">
        <g id="Group-2-Copy" transform="translate(-4.000000, -1.000000)">
            <rect id="Rectangle-9" fill-opacity="0" fill="#FFFFFF" x="0" y="0" width="32" height="32"></rect>
            <g id="logo" fill="url(#linearGradient-1)">
                <g id="Group" transform="translate(16.142857, 15.857143) rotate(136.000000) translate(-16.142857, -15.857143) translate(5.000000, 5.000000)">
                    <path d="M12.0557446,22.7694018 C13.2561119,22.7694018 16.2532031,22.7694018 21.0470183,22.7694018 C10.6029813,22.7694018 10.6636796,13.630572 10.6636796,10.6055559 C10.6636796,7.78097679 10.9851965,2.01318756 2.85906143,2.01318756 C2.65365464,5.8598593 2.57963625,8.65338609 2.63700628,10.3937679 C2.69635336,12.1941262 2.63700628,14.2606088 2.85906143,15.3243326 C4.103758,21.2868753 6.4057619,22.7694018 12.0557446,22.7694018 Z" id="Oval-Copy-25" transform="translate(11.832618, 12.391295) rotate(-90.000000) translate(-11.832618, -12.391295) "></path>
                    <path d="M11.0477788,19.8129199 C12.2481461,19.8129199 15.2452373,19.8129199 20.0390524,19.8129199 C9.59501545,19.8129199 9.65571379,10.67409 9.65571379,7.64907388 C9.65571379,4.82449481 9.97723068,-0.943294419 1.8510956,-0.943294419 C1.6456888,2.90337732 1.57167042,5.69690411 1.62904044,7.43728596 C1.68838753,9.23764421 1.62904044,11.3041268 1.8510956,12.3678506 C3.09579216,18.3303933 5.39779606,19.8129199 11.0477788,19.8129199 Z" id="Oval-Copy-25" transform="translate(10.824653, 9.434813) rotate(90.000000) translate(-10.824653, -9.434813) "></path>
                </g>
            </g>
        </g>
    </g>
</svg>