<?xml version="1.0" encoding="UTF-8"?>
<svg width="122px" height="51px" viewBox="0 0 122 51" version="1.1" xmlns="http://www.w3.org/2000/svg" xmlns:xlink="http://www.w3.org/1999/xlink">
    <!-- Generator: Sketch 47.1 (45422) - http://www.bohemiancoding.com/sketch -->
    <title>logo</title>
    <desc>Created with Sketch.</desc>
    <defs>
        <linearGradient x1="50%" y1="-26.7963015%" x2="50%" y2="100%" id="linearGradient-1">
            <stop stop-color="#98ACFF" offset="0%"></stop>
            <stop stop-color="#4353FF" offset="100%"></stop>
        </linearGradient>
    </defs>
    <g id="Page-1" stroke="none" stroke-width="1" fill="none" fill-rule="evenodd">
        <g id="01.-Landing" transform="translate(-87.000000, -27.000000)">
            <g id="logo" transform="translate(81.000000, 24.000000)">
                <g id="Group" transform="translate(27.500000, 28.000000) rotate(136.000000) translate(-27.500000, -28.000000) translate(8.000000, 9.000000)" fill="url(#linearGradient-1)">
                    <path d="M21.0975531,39.8464532 C23.1981958,39.8464532 28.4431054,39.8464532 36.832282,39.8464532 C18.5552173,39.8464532 18.6614393,23.853501 18.6614393,18.5597228 C18.6614393,13.6167094 19.2240939,3.52307823 5.00335751,3.52307823 C4.64389562,10.2547538 4.51436344,15.1434257 4.61476098,18.1890939 C4.71861839,21.3397208 4.61476098,24.9560653 5.00335751,26.817582 C7.1815765,37.2520318 11.2100833,39.8464532 21.0975531,39.8464532 Z" id="Oval-Copy-25" transform="translate(20.707082, 21.684766) rotate(-90.000000) translate(-20.707082, -21.684766) "></path>
                    <path d="M19.3336129,34.6726098 C21.4342556,34.6726098 26.6791652,34.6726098 35.0683418,34.6726098 C16.791277,34.6726098 16.8974991,18.6796576 16.8974991,13.3858793 C16.8974991,8.44286591 17.4601537,-1.65076523 3.2394173,-1.65076523 C2.87995541,5.08091031 2.75042323,9.9695822 2.85082077,13.0152504 C2.95467817,16.1658774 2.85082077,19.7822219 3.2394173,21.6437385 C5.41763629,32.0781883 9.44614311,34.6726098 19.3336129,34.6726098 Z" id="Oval-Copy-25" transform="translate(18.943142, 16.510922) rotate(90.000000) translate(-18.943142, -16.510922) "></path>
                </g>
                <path d="M76.304,29.984 C76.304,30.1866677 76.2346674,30.354666 76.096,30.488 C75.9573326,30.621334 75.7813344,30.688 75.568,30.688 L69.488,30.688 C69.6053339,31.4346704 69.9439972,32.037331 70.504,32.496 C71.0640028,32.954669 71.7493293,33.184 72.56,33.184 C72.8800016,33.184 73.2133316,33.1253339 73.56,33.008 C73.9066684,32.8906661 74.1919989,32.7466675 74.416,32.576 C74.5653341,32.4586661 74.7413323,32.4 74.944,32.4 C75.1466677,32.4 75.3066661,32.4533328 75.424,32.56 C75.616001,32.7200008 75.712,32.9013323 75.712,33.104 C75.712,33.296001 75.6266675,33.4559994 75.456,33.584 C75.0933315,33.8720014 74.6426694,34.1066658 74.104,34.288 C73.5653306,34.4693342 73.0506691,34.56 72.56,34.56 C71.685329,34.56 70.9013368,34.3706686 70.208,33.992 C69.5146632,33.6133314 68.9733353,33.0880034 68.584,32.416 C68.1946647,31.7439966 68,30.9813376 68,30.128 C68,29.2746624 68.1839982,28.5093367 68.552,27.832 C68.9200018,27.1546633 69.4319967,26.6266686 70.088,26.248 C70.7440033,25.8693314 71.4879958,25.68 72.32,25.68 C73.1413374,25.68 73.8506637,25.8613315 74.448,26.224 C75.0453363,26.5866685 75.5039984,27.0933301 75.824,27.744 C76.1440016,28.3946699 76.304,29.1413291 76.304,29.984 Z M72.32,27.056 C71.5413294,27.056 70.9093358,27.2693312 70.424,27.696 C69.9386642,28.1226688 69.6320006,28.6933298 69.504,29.408 L74.832,29.408 C74.7359995,28.6933298 74.4693355,28.1226688 74.032,27.696 C73.5946645,27.2693312 73.0240035,27.056 72.32,27.056 Z M82.4373334,29.312 C82.6720013,29.312 82.8639993,29.3893326 83.0133334,29.544 C83.1626675,29.6986674 83.2373334,29.8933322 83.2373334,30.128 C83.2373334,30.3626678 83.1626675,30.5546659 83.0133334,30.704 C82.8639993,30.8533341 82.6720013,30.928 82.4373334,30.928 L78.8693334,30.928 C78.6346656,30.928 78.4400009,30.8533341 78.2853334,30.704 C78.130666,30.5546659 78.0533334,30.3626678 78.0533334,30.128 C78.0533334,29.8933322 78.130666,29.6986674 78.2853334,29.544 C78.4400009,29.3893326 78.6346656,29.312 78.8693334,29.312 L82.4373334,29.312 Z M92.4426668,25.856 C92.5813342,25.9200003 92.6879998,26.0079994 92.7626668,26.12 C92.8373339,26.2320006 92.8746668,26.3573326 92.8746668,26.496 C92.8746668,26.5920005 92.8480004,26.6933328 92.7946668,26.8 L89.4026668,33.952 C89.242666,34.3040018 88.9973352,34.48 88.6666668,34.48 C88.4853326,34.48 88.3360008,34.4400004 88.2186668,34.36 C88.1013329,34.2799996 87.9946673,34.144001 87.8986668,33.952 L84.5066668,26.8 C84.464,26.7146662 84.4426668,26.6186672 84.4426668,26.512 C84.4426668,26.2239986 84.5919987,26.0053341 84.8906668,25.856 C84.9866673,25.8026664 85.0986662,25.776 85.2266668,25.776 C85.3546675,25.776 85.4773329,25.8106663 85.5946668,25.88 C85.7120008,25.9493337 85.8026665,26.0479994 85.8666668,26.176 L88.6506668,32.176 L91.4026668,26.176 C91.4666672,26.0479994 91.5599996,25.9493337 91.6826668,25.88 C91.8053341,25.8106663 91.9359995,25.776 92.0746668,25.776 C92.2133342,25.776 92.3359996,25.8026664 92.4426668,25.856 Z M98.6560003,25.68 C99.4986711,25.68 100.25333,25.8693314 100.92,26.248 C101.58667,26.6266686 102.109332,27.1519966 102.488,27.824 C102.866669,28.4960034 103.056,29.2639957 103.056,30.128 C103.056,30.9813376 102.869335,31.7439966 102.496,32.416 C102.122665,33.0880034 101.60267,33.6133314 100.936,33.992 C100.26933,34.3706686 99.5093379,34.56 98.6560003,34.56 C97.8026627,34.56 97.0400036,34.3706686 96.3680003,33.992 C95.6959969,33.6133314 95.1733355,33.0880034 94.8000003,32.416 C94.4266651,31.7439966 94.2400003,30.9813376 94.2400003,30.128 C94.2400003,29.2639957 94.4266651,28.4960034 94.8000003,27.824 C95.1733355,27.1519966 95.6959969,26.6266686 96.3680003,26.248 C97.0400036,25.8693314 97.8026627,25.68 98.6560003,25.68 Z M98.6560003,27.12 C98.1119975,27.12 97.6240024,27.2479987 97.1920003,27.504 C96.7599981,27.7600013 96.4213348,28.117331 96.1760003,28.576 C95.9306657,29.034669 95.8080003,29.5519971 95.8080003,30.128 C95.8080003,30.7040029 95.9306657,31.2186644 96.1760003,31.672 C96.4213348,32.1253356 96.7599981,32.4799987 97.1920003,32.736 C97.6240024,32.9920013 98.1119975,33.12 98.6560003,33.12 C99.200003,33.12 99.6879981,32.9920013 100.12,32.736 C100.552002,32.4799987 100.887999,32.1253356 101.128,31.672 C101.368001,31.2186644 101.488,30.7040029 101.488,30.128 C101.488,29.5519971 101.368001,29.034669 101.128,28.576 C100.887999,28.117331 100.552002,27.7600013 100.12,27.504 C99.6879981,27.2479987 99.200003,27.12 98.6560003,27.12 Z M105.701334,22.8 C105.701334,22.5653322 105.776,22.3733341 105.925334,22.224 C106.074668,22.0746659 106.266666,22 106.501334,22 C106.736002,22 106.928,22.0746659 107.077334,22.224 C107.226668,22.3733341 107.301334,22.5653322 107.301334,22.8 L107.301334,31.536 C107.301334,31.9306686 107.376,32.2559987 107.525334,32.512 C107.674668,32.7680013 107.866666,32.896 108.101334,32.896 L108.501334,32.896 C108.714668,32.896 108.888,32.9706659 109.021334,33.12 C109.154668,33.2693341 109.221334,33.4613322 109.221334,33.696 C109.221334,33.9306678 109.120001,34.1226659 108.917334,34.272 C108.714666,34.4213341 108.453335,34.496 108.133334,34.496 L108.101334,34.496 C107.642665,34.496 107.229336,34.3706679 106.861334,34.12 C106.493332,33.8693321 106.208001,33.5173356 106.005334,33.064 C105.802666,32.6106644 105.701334,32.1013362 105.701334,31.536 L105.701334,22.8 Z M117.610667,25.856 C117.749334,25.9200003 117.856,26.0079994 117.930667,26.12 C118.005334,26.2320006 118.042667,26.3573326 118.042667,26.496 C118.042667,26.5920005 118.016001,26.6933328 117.962667,26.8 L114.570667,33.952 C114.410666,34.3040018 114.165335,34.48 113.834667,34.48 C113.653333,34.48 113.504001,34.4400004 113.386667,34.36 C113.269333,34.2799996 113.162668,34.144001 113.066667,33.952 L109.674667,26.8 C109.632,26.7146662 109.610667,26.6186672 109.610667,26.512 C109.610667,26.2239986 109.759999,26.0053341 110.058667,25.856 C110.154668,25.8026664 110.266666,25.776 110.394667,25.776 C110.522668,25.776 110.645333,25.8106663 110.762667,25.88 C110.880001,25.9493337 110.970667,26.0479994 111.034667,26.176 L113.818667,32.176 L116.570667,26.176 C116.634667,26.0479994 116.728,25.9493337 116.850667,25.88 C116.973334,25.8106663 117.104,25.776 117.242667,25.776 C117.381334,25.776 117.504,25.8026664 117.610667,25.856 Z M127.712001,29.984 C127.712001,30.1866677 127.642668,30.354666 127.504001,30.488 C127.365333,30.621334 127.189335,30.688 126.976001,30.688 L120.896001,30.688 C121.013334,31.4346704 121.351998,32.037331 121.912001,32.496 C122.472003,32.954669 123.15733,33.184 123.968001,33.184 C124.288002,33.184 124.621332,33.1253339 124.968001,33.008 C125.314669,32.8906661 125.599999,32.7466675 125.824001,32.576 C125.973335,32.4586661 126.149333,32.4 126.352001,32.4 C126.554668,32.4 126.714667,32.4533328 126.832001,32.56 C127.024001,32.7200008 127.120001,32.9013323 127.120001,33.104 C127.120001,33.296001 127.034668,33.4559994 126.864001,33.584 C126.501332,33.8720014 126.05067,34.1066658 125.512001,34.288 C124.973331,34.4693342 124.45867,34.56 123.968001,34.56 C123.093329,34.56 122.309337,34.3706686 121.616001,33.992 C120.922664,33.6133314 120.381336,33.0880034 119.992001,32.416 C119.602665,31.7439966 119.408001,30.9813376 119.408001,30.128 C119.408001,29.2746624 119.591999,28.5093367 119.960001,27.832 C120.328002,27.1546633 120.839997,26.6266686 121.496001,26.248 C122.152004,25.8693314 122.895996,25.68 123.728001,25.68 C124.549338,25.68 125.258664,25.8613315 125.856001,26.224 C126.453337,26.5866685 126.911999,27.0933301 127.232001,27.744 C127.552002,28.3946699 127.712001,29.1413291 127.712001,29.984 Z M123.728001,27.056 C122.94933,27.056 122.317336,27.2693312 121.832001,27.696 C121.346665,28.1226688 121.040001,28.6933298 120.912001,29.408 L126.240001,29.408 C126.144,28.6933298 125.877336,28.1226688 125.440001,27.696 C125.002665,27.2693312 124.432004,27.056 123.728001,27.056 Z" id="e-volve" fill="#4353FF"></path>
            </g>
        </g>
    </g>
</svg>