<?xml version="1.0" encoding="UTF-8"?>
<svg width="25px" height="29px" viewBox="0 0 25 29" version="1.1" xmlns="http://www.w3.org/2000/svg" xmlns:xlink="http://www.w3.org/1999/xlink">
    <!-- Generator: Sketch 47.1 (45422) - http://www.bohemiancoding.com/sketch -->
    <title>logo</title>
    <desc>Created with Sketch.</desc>
    <defs>
        <linearGradient x1="50%" y1="-26.7963015%" x2="50%" y2="100%" id="linearGradient-1">
            <stop stop-color="#98ACFF" offset="0%"></stop>
            <stop stop-color="#4353FF" offset="100%"></stop>
        </linearGradient>
    </defs>
    <g id="Page-1" stroke="none" stroke-width="1" fill="none" fill-rule="evenodd">
        <g id="iPhone-SE-Copy" transform="translate(-19.000000, -18.000000)" fill="url(#linearGradient-1)">
            <g id="logo" transform="translate(16.000000, 16.000000)">
                <g id="Group" transform="translate(16.000000, 16.000000) rotate(136.000000) translate(-16.000000, -16.000000) translate(5.000000, 5.000000)">
                    <path d="M12.2179346,23 C13.3903718,23 16.3177269,23 21,23 C10.798974,23 10.85826,13.7538329 10.85826,10.6932873 C10.85826,7.83553301 11.1722959,2 3.23523898,2 C3.03461157,5.89185163 2.96231543,8.71818894 3.01835058,10.4790119 C3.07631678,12.3005157 3.01835058,14.3912695 3.23523898,15.467487 C4.45097405,21.5000609 6.69941512,23 12.2179346,23 Z" id="Oval-Copy-25" transform="translate(12.000000, 12.500000) rotate(-90.000000) translate(-12.000000, -12.500000) "></path>
                    <path d="M11.2179346,20 C12.3903718,20 15.3177269,20 20,20 C9.79897397,20 9.85825999,10.7538329 9.85825999,7.69328731 C9.85825999,4.83553301 10.1722959,-1 2.23523898,-1 C2.03461157,2.89185163 1.96231543,5.71818894 2.01835058,7.4790119 C2.07631678,9.30051571 2.01835058,11.3912695 2.23523898,12.467487 C3.45097405,18.5000609 5.69941512,20 11.2179346,20 Z" id="Oval-Copy-25" transform="translate(11.000000, 9.500000) rotate(90.000000) translate(-11.000000, -9.500000) "></path>
                </g>
            </g>
        </g>
    </g>
</svg>