<?xml version="1.0" encoding="UTF-8"?>
<svg width="32px" height="32px" viewBox="0 0 32 32" version="1.1" xmlns="http://www.w3.org/2000/svg" xmlns:xlink="http://www.w3.org/1999/xlink">
    <!-- Generator: Sketch 49.3 (51167) - http://www.bohemiancoding.com/sketch -->
    <title>Group 40</title>
    <desc>Created with Sketch.</desc>
    <defs></defs>
    <g id="Page-1" stroke="none" stroke-width="1" fill="none" fill-rule="evenodd">
        <g id="01.-Landing" transform="translate(-820.000000, -4193.000000)">
            <g id="Group-32" transform="translate(0.000000, 4023.000000)">
                <g id="Group-27" transform="translate(169.000000, 170.000000)">
                    <g id="Group-25" transform="translate(610.000000, 0.000000)">
                        <g id="Group-40" transform="translate(41.000000, 0.000000)">
                            <rect id="Rectangle" fill-opacity="0.01" fill="#5C6CFF" x="0" y="0" width="32" height="32"></rect>
                            <g id="medal" transform="translate(3.000000, 2.000000)" fill="#FFFFFF" fill-rule="nonzero">
                                <path d="M25.8679958,23.6178906 L22.6875458,16.7320234 C20.9314083,19.3136563 18.1894375,21.1519766 15.0154333,21.7094062 L17.6778333,27.4735234 C18.0182167,28.2110937 19.07165,28.161875 19.3457875,27.4001875 L20.7104083,23.6155937 L20.9916417,23.4831953 L24.7402458,24.8609375 C25.4924583,25.139625 26.2079458,24.3525625 25.8679958,23.6178906 Z" id="Shape"></path>
                                <path d="M13.0000542,0 C7.51914583,0 3.05960417,4.50214844 3.05960417,10.0360313 C3.05960417,15.5699141 7.5192,20.0720625 13.0000542,20.0720625 C18.4809625,20.0720625 22.9405042,15.5699141 22.9405042,10.0360313 C22.9405042,4.50214844 18.4810167,0 13.0000542,0 Z M17.8368125,9.298625 L16.074175,11.0334219 L16.4907167,13.4836406 C16.6180625,14.2317109 15.8373583,14.7937344 15.1792875,14.4453203 L13.0001083,13.2887891 L10.8209292,14.4452656 C10.1590667,14.7961406 9.38285833,14.2275 9.5095,13.4835859 L9.92604167,11.0333672 L8.16340417,9.29857031 C7.62769583,8.77127344 7.92501667,7.85082813 8.664175,7.74238281 L11.1004292,7.38510938 L12.1900458,5.15642969 C12.5197583,4.47961719 13.4802417,4.47901563 13.8103333,5.15642969 L14.89995,7.38510938 L17.3362042,7.74238281 C18.0752542,7.85077344 18.3725208,8.77127344 17.8368125,9.298625 Z" id="Shape"></path>
                                <path d="M3.31261667,16.7320234 L0.132166667,23.6178906 C-0.209354167,24.3560078 0.512579167,25.13875 1.25997083,24.8607734 L5.00852083,23.4830312 L5.28975417,23.6154297 L6.654375,27.4000781 C6.92797083,28.1601797 7.98124167,28.2125703 8.32232917,27.4734687 L10.9847292,21.7093516 C7.810725,21.1519766 5.06880833,19.3137109 3.31261667,16.7320234 Z" id="Shape"></path>
                            </g>
                        </g>
                    </g>
                </g>
            </g>
        </g>
    </g>
</svg>