<?xml version="1.0" encoding="UTF-8"?>
<svg width="32px" height="32px" viewBox="0 0 32 32" version="1.1" xmlns="http://www.w3.org/2000/svg" xmlns:xlink="http://www.w3.org/1999/xlink">
    <!-- Generator: Sketch 49.3 (51167) - http://www.bohemiancoding.com/sketch -->
    <title>Group 24</title>
    <desc>Created with Sketch.</desc>
    <defs></defs>
    <g id="Page-1" stroke="none" stroke-width="1" fill="none" fill-rule="evenodd">
        <g id="01.-Landing" transform="translate(-223.000000, -4138.000000)">
            <g id="Group-24" transform="translate(223.000000, 4138.000000)">
                <g id="Group-34">
                    <g id="Group-42">
                        <rect id="Rectangle" fill-opacity="0.01" fill="#5C6CFF" x="0" y="0" width="32" height="32"></rect>
                        <g id="secure-payment" transform="translate(4.000000, 1.000000)" fill="#FFFFFF" fill-rule="nonzero">
                            <path d="M15.8553469,10.9002033 C15.6666939,10.7136017 15.4037551,10.6065682 15.1338776,10.6065682 C14.8601633,10.6065682 14.6040816,10.7107744 14.4124898,10.9002033 L10.8400816,14.4352145 L9.60644898,13.2143064 C9.41379592,13.0242312 9.15779592,12.9195404 8.88571429,12.9195404 C8.61338776,12.9195404 8.35722449,13.0243928 8.16432653,13.2151142 C7.97159184,13.4059164 7.86538776,13.6595655 7.86538776,13.9292089 C7.86538776,14.1990947 7.97167347,14.4527437 8.1642449,14.6432228 L10.1192653,16.5779833 C10.3103673,16.7666852 10.5663673,16.8705682 10.8399184,16.8705682 C10.84,16.8705682 10.84,16.8705682 10.84,16.8705682 C11.1137143,16.8705682 11.3696327,16.7666045 11.5616327,16.5772563 L15.8555102,12.328312 C16.2532245,11.9347521 16.2533061,11.2942479 15.8553469,10.9002033 Z" id="Shape"></path>
                            <path d="M23.9148571,5.96083287 C23.8986939,5.77689694 23.7861224,5.61485237 23.6183673,5.5341532 L12.2342041,0.0529108635 C12.0876735,-0.0176908078 11.9164082,-0.0176908078 11.7698776,0.0529108635 L0.385795918,5.53407242 C0.218040816,5.61485237 0.105387755,5.77681616 0.0893061224,5.96075209 C0.0747755102,6.12602786 -0.251673469,10.0643733 1.00595918,14.8745766 C1.74677551,17.7080947 2.8875102,20.2499972 4.39640816,22.4296825 C6.28889796,25.1633565 8.76555102,27.3283398 11.7577959,28.8643705 C11.8343673,28.9037103 11.9182857,28.9233398 12.0021224,28.9233398 C12.0859592,28.9233398 12.1698776,28.9037103 12.246449,28.8643705 C15.2386122,27.3283398 17.7154286,25.1634373 19.6079184,22.4296825 C21.1168163,20.2499972 22.257551,17.7080947 22.9982857,14.8745766 C24.2558367,10.0643733 23.9293878,6.12610864 23.9148571,5.96083287 Z M12.0020408,20.3323928 C8.28057143,20.3323928 5.25297959,17.3364262 5.25297959,13.6538301 C5.25297959,9.97123398 8.28057143,6.97526741 12.0020408,6.97526741 C15.7235102,6.97526741 18.751102,9.97123398 18.751102,13.6538301 C18.751102,17.3364262 15.7235102,20.3323928 12.0020408,20.3323928 Z" id="Shape"></path>
                        </g>
                    </g>
                </g>
            </g>
        </g>
    </g>
</svg>