<?xml version="1.0" encoding="UTF-8"?>
<svg width="32px" height="32px" viewBox="0 0 32 32" version="1.1" xmlns="http://www.w3.org/2000/svg" xmlns:xlink="http://www.w3.org/1999/xlink">
    <!-- Generator: Sketch 49.3 (51167) - http://www.bohemiancoding.com/sketch -->
    <title>Group 41</title>
    <desc>Created with Sketch.</desc>
    <defs></defs>
    <g id="Page-1" stroke="none" stroke-width="1" fill="none" fill-rule="evenodd">
        <g id="01.-Landing" transform="translate(-1156.000000, -4195.000000)">
            <g id="Group-32" transform="translate(0.000000, 4023.000000)">
                <g id="Group-27" transform="translate(169.000000, 170.000000)">
                    <g id="Group-25-Copy" transform="translate(904.000000, 2.000000)">
                        <g id="Group-26">
                            <g id="Group-41" transform="translate(83.000000, 0.000000)">
                                <rect id="Rectangle" fill-opacity="0.01" fill="#5C6CFF" x="0" y="0" width="32" height="32"></rect>
                                <g id="lock" transform="translate(6.000000, 3.000000)" fill="#FFFFFF" fill-rule="nonzero">
                                    <path d="M19.4444271,9.75 L17.7777604,9.75 L17.7777604,7.58331641 C17.7777604,3.40183594 14.28875,0 10,0 C5.71125,0 2.22223958,3.40183594 2.22223958,7.58331641 L2.22223958,9.75 L0.555572917,9.75 C0.248489583,9.75 0,9.99227734 0,10.2916836 L0,23.8333672 C0,25.0283008 0.996614583,26 2.22223958,26 L17.7778125,26 C19.0033854,26 20,25.0283008 20,23.8333164 L20,10.2916836 C20,9.99227734 19.7515104,9.75 19.4444271,9.75 Z M11.6634375,21.0652305 C11.6807813,21.218082 11.6303646,21.3714922 11.5251042,21.4863086 C11.4198438,21.6010742 11.2690104,21.6666836 11.1111458,21.6666836 L8.88890625,21.6666836 C8.73104167,21.6666836 8.58020833,21.6010742 8.47494792,21.4863086 C8.3696875,21.371543 8.31921875,21.2181328 8.33661458,21.0652305 L8.68708333,17.992457 C8.11796875,17.5888477 7.7778125,16.950375 7.7778125,16.25 C7.7778125,15.0550664 8.77442708,14.0833164 10.0000521,14.0833164 C11.2256771,14.0833164 12.2222917,15.0550156 12.2222917,16.25 C12.2222917,16.950375 11.8821354,17.5888477 11.3130208,17.992457 L11.6634375,21.0652305 Z M14.4444271,9.75 L5.55557292,9.75 L5.55557292,7.58331641 C5.55557292,5.19395703 7.549375,3.25 10,3.25 C12.450625,3.25 14.4444271,5.19395703 14.4444271,7.58331641 L14.4444271,9.75 Z" id="Shape"></path>
                                </g>
                            </g>
                        </g>
                    </g>
                </g>
            </g>
        </g>
    </g>
</svg>