<?xml version="1.0" encoding="UTF-8"?>
<svg width="123px" height="52px" viewBox="0 0 123 52" version="1.1" xmlns="http://www.w3.org/2000/svg" xmlns:xlink="http://www.w3.org/1999/xlink">
    <!-- Generator: Sketch 47.1 (45422) - http://www.bohemiancoding.com/sketch -->
    <title>logo</title>
    <desc>Created with Sketch.</desc>
    <defs>
        <linearGradient x1="50%" y1="-26.7963015%" x2="50%" y2="100%" id="linearGradient-1">
            <stop stop-color="#98ACFF" offset="0%"></stop>
            <stop stop-color="#4353FF" offset="100%"></stop>
        </linearGradient>
    </defs>
    <g id="Page-1" stroke="none" stroke-width="1" fill="none" fill-rule="evenodd">
        <g id="01.-Landing" transform="translate(-86.000000, -34.000000)">
            <g id="logo" transform="translate(80.000000, 32.000000)">
                <g id="Group" transform="translate(28.130475, 27.839373) rotate(136.000000) translate(-28.130475, -27.839373) translate(8.630475, 8.839373)" fill="url(#linearGradient-1)">
                    <path d="M21.0975531,39.8464532 C23.1981958,39.8464532 28.4431054,39.8464532 36.832282,39.8464532 C18.5552173,39.8464532 18.6614393,23.853501 18.6614393,18.5597228 C18.6614393,13.6167094 19.2240939,3.52307823 5.00335751,3.52307823 C4.64389562,10.2547538 4.51436344,15.1434257 4.61476098,18.1890939 C4.71861839,21.3397208 4.61476098,24.9560653 5.00335751,26.817582 C7.1815765,37.2520318 11.2100833,39.8464532 21.0975531,39.8464532 Z" id="Oval-Copy-25" transform="translate(20.707082, 21.684766) rotate(-90.000000) translate(-20.707082, -21.684766) "></path>
                    <path d="M19.3336129,34.6726098 C21.4342556,34.6726098 26.6791652,34.6726098 35.0683418,34.6726098 C16.791277,34.6726098 16.8974991,18.6796576 16.8974991,13.3858793 C16.8974991,8.44286591 17.4601537,-1.65076523 3.2394173,-1.65076523 C2.87995541,5.08091031 2.75042323,9.9695822 2.85082077,13.0152504 C2.95467817,16.1658774 2.85082077,19.7822219 3.2394173,21.6437385 C5.41763629,32.0781883 9.44614311,34.6726098 19.3336129,34.6726098 Z" id="Oval-Copy-25" transform="translate(18.943142, 16.510922) rotate(90.000000) translate(-18.943142, -16.510922) "></path>
                </g>
                <path d="M77.5591579,27.5406316 C77.5591579,27.7432993 77.4898253,27.9112976 77.3511579,28.0446316 C77.2124905,28.1779656 77.0364923,28.2446316 76.8231579,28.2446316 L70.7431579,28.2446316 C70.8604918,28.991302 71.1991551,29.5939626 71.7591579,30.0526316 C72.3191607,30.5113005 73.0044872,30.7406316 73.8151579,30.7406316 C74.1351595,30.7406316 74.4684895,30.6819655 74.8151579,30.5646316 C75.1618263,30.4472977 75.4471568,30.3032991 75.6711579,30.1326316 C75.820492,30.0152977 75.9964902,29.9566316 76.1991579,29.9566316 C76.4018256,29.9566316 76.561824,30.0099644 76.6791579,30.1166316 C76.8711589,30.2766324 76.9671579,30.4579639 76.9671579,30.6606316 C76.9671579,30.8526325 76.8818254,31.0126309 76.7111579,31.1406316 C76.3484894,31.428633 75.8978273,31.6632973 75.3591579,31.8446316 C74.8204885,32.0259658 74.305827,32.1166316 73.8151579,32.1166316 C72.9404869,32.1166316 72.1564947,31.9273001 71.4631579,31.5486316 C70.7698211,31.169963 70.2284932,30.6446349 69.8391579,29.9726316 C69.4498226,29.3006282 69.2551579,28.5379692 69.2551579,27.6846316 C69.2551579,26.831294 69.4391561,26.0659683 69.8071579,25.3886316 C70.1751597,24.7112949 70.6871546,24.1833001 71.3431579,23.8046316 C71.9991612,23.425963 72.7431537,23.2366316 73.5751579,23.2366316 C74.3964953,23.2366316 75.1058216,23.4179631 75.7031579,23.7806316 C76.3004942,24.1433001 76.7591563,24.6499617 77.0791579,25.3006316 C77.3991595,25.9513015 77.5591579,26.6979607 77.5591579,27.5406316 Z M73.5751579,24.6126316 C72.7964873,24.6126316 72.1644937,24.8259628 71.6791579,25.2526316 C71.1938221,25.6793004 70.8871585,26.2499613 70.7591579,26.9646316 L76.0871579,26.9646316 C75.9911574,26.2499613 75.7244934,25.6793004 75.2871579,25.2526316 C74.8498224,24.8259628 74.2791614,24.6126316 73.5751579,24.6126316 Z M83.6924913,26.8686316 C83.9271592,26.8686316 84.1191572,26.9459641 84.2684913,27.1006316 C84.4178254,27.255299 84.4924913,27.4499637 84.4924913,27.6846316 C84.4924913,27.9192994 84.4178254,28.1112975 84.2684913,28.2606316 C84.1191572,28.4099657 83.9271592,28.4846316 83.6924913,28.4846316 L80.1244913,28.4846316 C79.8898235,28.4846316 79.6951588,28.4099657 79.5404913,28.2606316 C79.3858239,28.1112975 79.3084913,27.9192994 79.3084913,27.6846316 C79.3084913,27.4499637 79.3858239,27.255299 79.5404913,27.1006316 C79.6951588,26.9459641 79.8898235,26.8686316 80.1244913,26.8686316 L83.6924913,26.8686316 Z M93.6978247,23.4126316 C93.8364921,23.4766319 93.9431577,23.564631 94.0178247,23.6766316 C94.0924918,23.7886321 94.1298247,23.9139642 94.1298247,24.0526316 C94.1298247,24.1486321 94.1031583,24.2499644 94.0498247,24.3566316 L90.6578247,31.5086316 C90.4978239,31.8606333 90.2524931,32.0366316 89.9218247,32.0366316 C89.7404905,32.0366316 89.5911587,31.996632 89.4738247,31.9166316 C89.3564908,31.8366312 89.2498252,31.7006325 89.1538247,31.5086316 L85.7618247,24.3566316 C85.7191579,24.2712978 85.6978247,24.1752988 85.6978247,24.0686316 C85.6978247,23.7806301 85.8471566,23.5619657 86.1458247,23.4126316 C86.2418252,23.359298 86.3538241,23.3326316 86.4818247,23.3326316 C86.6098254,23.3326316 86.7324908,23.3672979 86.8498247,23.4366316 C86.9671587,23.5059653 87.0578244,23.6046309 87.1218247,23.7326316 L89.9058247,29.7326316 L92.6578247,23.7326316 C92.7218251,23.6046309 92.8151575,23.5059653 92.9378247,23.4366316 C93.060492,23.3672979 93.1911574,23.3326316 93.3298247,23.3326316 C93.4684921,23.3326316 93.5911575,23.359298 93.6978247,23.4126316 Z M99.9111582,23.2366316 C100.753829,23.2366316 101.508488,23.425963 102.175158,23.8046316 C102.841828,24.1833001 103.36449,24.7086282 103.743158,25.3806316 C104.121827,26.0526349 104.311158,26.8206273 104.311158,27.6846316 C104.311158,28.5379692 104.124493,29.3006282 103.751158,29.9726316 C103.377823,30.6446349 102.857828,31.169963 102.191158,31.5486316 C101.524488,31.9273001 100.764496,32.1166316 99.9111582,32.1166316 C99.0578206,32.1166316 98.2951615,31.9273001 97.6231582,31.5486316 C96.9511548,31.169963 96.4284934,30.6446349 96.0551582,29.9726316 C95.681823,29.3006282 95.4951582,28.5379692 95.4951582,27.6846316 C95.4951582,26.8206273 95.681823,26.0526349 96.0551582,25.3806316 C96.4284934,24.7086282 96.9511548,24.1833001 97.6231582,23.8046316 C98.2951615,23.425963 99.0578206,23.2366316 99.9111582,23.2366316 Z M99.9111582,24.6766316 C99.3671554,24.6766316 98.8791603,24.8046303 98.4471582,25.0606316 C98.015156,25.3166329 97.6764927,25.6739626 97.4311582,26.1326316 C97.1858236,26.5913005 97.0631582,27.1086287 97.0631582,27.6846316 C97.0631582,28.2606345 97.1858236,28.775296 97.4311582,29.2286316 C97.6764927,29.6819672 98.015156,30.0366303 98.4471582,30.2926316 C98.8791603,30.5486329 99.3671554,30.6766316 99.9111582,30.6766316 C100.455161,30.6766316 100.943156,30.5486329 101.375158,30.2926316 C101.80716,30.0366303 102.143157,29.6819672 102.383158,29.2286316 C102.623159,28.775296 102.743158,28.2606345 102.743158,27.6846316 C102.743158,27.1086287 102.623159,26.5913005 102.383158,26.1326316 C102.143157,25.6739626 101.80716,25.3166329 101.375158,25.0606316 C100.943156,24.8046303 100.455161,24.6766316 99.9111582,24.6766316 Z M106.956492,20.3566316 C106.956492,20.1219637 107.031157,19.9299657 107.180492,19.7806316 C107.329826,19.6312975 107.521824,19.5566316 107.756492,19.5566316 C107.991159,19.5566316 108.183157,19.6312975 108.332492,19.7806316 C108.481826,19.9299657 108.556492,20.1219637 108.556492,20.3566316 L108.556492,29.0926316 C108.556492,29.4873002 108.631157,29.8126303 108.780492,30.0686316 C108.929826,30.3246329 109.121824,30.4526316 109.356492,30.4526316 L109.756492,30.4526316 C109.969826,30.4526316 110.143158,30.5272975 110.276492,30.6766316 C110.409826,30.8259657 110.476492,31.0179637 110.476492,31.2526316 C110.476492,31.4872994 110.375159,31.6792975 110.172492,31.8286316 C109.969824,31.9779657 109.708493,32.0526316 109.388492,32.0526316 L109.356492,32.0526316 C108.897823,32.0526316 108.484493,31.9272995 108.116492,31.6766316 C107.74849,31.4259637 107.463159,31.0739672 107.260492,30.6206316 C107.057824,30.167296 106.956492,29.6579677 106.956492,29.0926316 L106.956492,20.3566316 Z M118.865825,23.4126316 C119.004492,23.4766319 119.111158,23.564631 119.185825,23.6766316 C119.260492,23.7886321 119.297825,23.9139642 119.297825,24.0526316 C119.297825,24.1486321 119.271159,24.2499644 119.217825,24.3566316 L115.825825,31.5086316 C115.665824,31.8606333 115.420493,32.0366316 115.089825,32.0366316 C114.908491,32.0366316 114.759159,31.996632 114.641825,31.9166316 C114.524491,31.8366312 114.417825,31.7006325 114.321825,31.5086316 L110.929825,24.3566316 C110.887158,24.2712978 110.865825,24.1752988 110.865825,24.0686316 C110.865825,23.7806301 111.015157,23.5619657 111.313825,23.4126316 C111.409825,23.359298 111.521824,23.3326316 111.649825,23.3326316 C111.777826,23.3326316 111.900491,23.3672979 112.017825,23.4366316 C112.135159,23.5059653 112.225825,23.6046309 112.289825,23.7326316 L115.073825,29.7326316 L117.825825,23.7326316 C117.889825,23.6046309 117.983158,23.5059653 118.105825,23.4366316 C118.228492,23.3672979 118.359158,23.3326316 118.497825,23.3326316 C118.636492,23.3326316 118.759158,23.359298 118.865825,23.4126316 Z M128.967158,27.5406316 C128.967158,27.7432993 128.897826,27.9112976 128.759158,28.0446316 C128.620491,28.1779656 128.444493,28.2446316 128.231158,28.2446316 L122.151158,28.2446316 C122.268492,28.991302 122.607156,29.5939626 123.167158,30.0526316 C123.727161,30.5113005 124.412488,30.7406316 125.223158,30.7406316 C125.54316,30.7406316 125.87649,30.6819655 126.223158,30.5646316 C126.569827,30.4472977 126.855157,30.3032991 127.079158,30.1326316 C127.228492,30.0152977 127.404491,29.9566316 127.607158,29.9566316 C127.809826,29.9566316 127.969824,30.0099644 128.087158,30.1166316 C128.279159,30.2766324 128.375158,30.4579639 128.375158,30.6606316 C128.375158,30.8526325 128.289826,31.0126309 128.119158,31.1406316 C127.75649,31.428633 127.305828,31.6632973 126.767158,31.8446316 C126.228489,32.0259658 125.713828,32.1166316 125.223158,32.1166316 C124.348487,32.1166316 123.564495,31.9273001 122.871158,31.5486316 C122.177822,31.169963 121.636494,30.6446349 121.247158,29.9726316 C120.857823,29.3006282 120.663158,28.5379692 120.663158,27.6846316 C120.663158,26.831294 120.847157,26.0659683 121.215158,25.3886316 C121.58316,24.7112949 122.095155,24.1833001 122.751158,23.8046316 C123.407162,23.425963 124.151154,23.2366316 124.983158,23.2366316 C125.804496,23.2366316 126.513822,23.4179631 127.111158,23.7806316 C127.708495,24.1433001 128.167157,24.6499617 128.487158,25.3006316 C128.80716,25.9513015 128.967158,26.6979607 128.967158,27.5406316 Z M124.983158,24.6126316 C124.204488,24.6126316 123.572494,24.8259628 123.087158,25.2526316 C122.601823,25.6793004 122.295159,26.2499613 122.167158,26.9646316 L127.495158,26.9646316 C127.399158,26.2499613 127.132494,25.6793004 126.695158,25.2526316 C126.257823,24.8259628 125.687162,24.6126316 124.983158,24.6126316 Z" id="e-volve" fill="#4353FF"></path>
            </g>
        </g>
    </g>
</svg>