<?xml version="1.0" encoding="UTF-8"?>
<svg width="58px" height="58px" viewBox="0 0 58 58" version="1.1" xmlns="http://www.w3.org/2000/svg" xmlns:xlink="http://www.w3.org/1999/xlink">
    <!-- Generator: Sketch 48.1 (47250) - http://www.bohemiancoding.com/sketch -->
    <title>Group 30</title>
    <desc>Created with Sketch.</desc>
    <defs></defs>
    <g id="01.-Landing" stroke="none" stroke-width="1" fill="none" fill-rule="evenodd" transform="translate(-739.000000, -4614.000000)">
        <g id="Group-32" transform="translate(0.000000, 4231.000000)">
            <g id="Group-31" transform="translate(644.000000, 384.000000)">
                <g id="Group-30" transform="translate(96.000000, 0.000000)">
                    <g id="ic_mail_outline_white_24px" transform="translate(16.000000, 16.000000)">
                        <polygon id="Shape" points="0 0 24 0 24 24 0 24"></polygon>
                        <path d="M20,4 L4,4 C2.9,4 2.01,4.9 2.01,6 L2,18 C2,19.1 2.9,20 4,20 L20,20 C21.1,20 22,19.1 22,18 L22,6 C22,4.9 21.1,4 20,4 Z M20,18 L4,18 L4,8 L12,13 L20,8 L20,18 Z M12,11 L4,6 L20,6 L12,11 Z" id="Shape" fill="#FFFFFF" fill-rule="nonzero"></path>
                    </g>
                    <circle id="Oval-4" stroke="#FFFFFF" stroke-width="1.5" cx="28" cy="28" r="28"></circle>
                </g>
            </g>
        </g>
    </g>
</svg>