<?xml version="1.0" encoding="UTF-8"?>
<svg width="276px" height="374px" viewBox="0 0 276 374" version="1.1" xmlns="http://www.w3.org/2000/svg" xmlns:xlink="http://www.w3.org/1999/xlink">
    <!-- Generator: Sketch 47.1 (45422) - http://www.bohemiancoding.com/sketch -->
    <title>Group 33</title>
    <desc>Created with Sketch.</desc>
    <defs>
        <radialGradient cx="50%" cy="50%" fx="50%" fy="50%" r="50%" gradientTransform="translate(0.500000,0.500000),scale(0.075728,1.000000),rotate(90.000000),scale(1.000000,10.378384),translate(-0.500000,-0.500000)" id="radialGradient-1">
            <stop stop-color="#000000" offset="0%"></stop>
            <stop stop-color="#000000" stop-opacity="0" offset="100%"></stop>
        </radialGradient>
        <filter x="-9.1%" y="-120.0%" width="118.2%" height="340.0%" filterUnits="objectBoundingBox" id="filter-2">
            <feGaussianBlur stdDeviation="10" in="SourceGraphic"></feGaussianBlur>
        </filter>
        <path d="M15.4181084,78.0523304 C28.440786,86.0126456 35.3339155,94.0657113 46.0910385,113.379411 C58.6537312,135.934892 71.9777211,175.475565 70.7604467,189.793767 C69.5431723,204.111969 63.7604204,215.443793 55.5458772,216.815906 C47.331334,218.188019 39.9743788,217.059485 29.6969002,194.625138 C19.4194215,172.190791 15.0594694,136.12976 7.05833493,127.569632 C-0.94279954,119.009504 1.09775427,85.6984911 0.28457599,79.1406865 C-0.52860229,72.5828819 12.0040442,75.9654303 15.4181084,78.0523304 Z" id="path-3"></path>
        <filter x="-19.1%" y="-9.5%" width="138.2%" height="119.0%" filterUnits="objectBoundingBox" id="filter-4">
            <feGaussianBlur stdDeviation="6.5" in="SourceAlpha" result="shadowBlurInner1"></feGaussianBlur>
            <feOffset dx="-7" dy="-14" in="shadowBlurInner1" result="shadowOffsetInner1"></feOffset>
            <feComposite in="shadowOffsetInner1" in2="SourceAlpha" operator="arithmetic" k2="-1" k3="1" result="shadowInnerInner1"></feComposite>
            <feColorMatrix values="0 0 0 0 0   0 0 0 0 0   0 0 0 0 0  0 0 0 0.0288722826 0" type="matrix" in="shadowInnerInner1"></feColorMatrix>
        </filter>
        <path d="M127.274183,236.431265 C135.553978,236.431265 131.675113,264.596735 131.675113,287.661683 C131.675113,310.726631 136.642025,340.708239 161.224092,340.708239 C200.435086,340.708239 198.134409,283.634858 198.134409,270.010751 C198.134409,256.386644 201.338128,228.243885 202.989435,213.427414 C204.15126,203.002861 205.758834,193.739353 207.341964,187.458048 C208.008945,184.811702 208.671587,182.694691 209.294729,181.243202 C213.88612,170.548444 216.422604,158.806106 216.422604,146.485915 C216.422604,96.751118 175.087596,56.4330986 124.09828,56.4330986 C73.1089637,56.4330986 31.7739558,96.751118 31.7739558,146.485915 C31.7739558,165.979929 38.568524,183.303329 48.9173687,198.767003 C55.2241833,208.190908 53.7500475,246.564027 57.2700069,274.744258 C61.0377711,304.908375 60.6621302,338.649086 90.7273275,340.708239 C140.889352,344.143816 118.58859,236.431265 127.274183,236.431265 Z" id="path-5"></path>
        <filter x="-10.0%" y="-6.2%" width="120.0%" height="113.0%" filterUnits="objectBoundingBox" id="filter-6">
            <feOffset dx="0" dy="1" in="SourceAlpha" result="shadowOffsetOuter1"></feOffset>
            <feGaussianBlur stdDeviation="6" in="shadowOffsetOuter1" result="shadowBlurOuter1"></feGaussianBlur>
            <feColorMatrix values="0 0 0 0 0   0 0 0 0 0   0 0 0 0 0  0 0 0 0.0531872736 0" type="matrix" in="shadowBlurOuter1"></feColorMatrix>
        </filter>
        <filter x="-19.8%" y="-12.5%" width="139.5%" height="125.7%" filterUnits="objectBoundingBox" id="filter-7">
            <feGaussianBlur stdDeviation="14.5" in="SourceAlpha" result="shadowBlurInner1"></feGaussianBlur>
            <feOffset dx="-20" dy="-14" in="shadowBlurInner1" result="shadowOffsetInner1"></feOffset>
            <feComposite in="shadowOffsetInner1" in2="SourceAlpha" operator="arithmetic" k2="-1" k3="1" result="shadowInnerInner1"></feComposite>
            <feColorMatrix values="0 0 0 0 0   0 0 0 0 0   0 0 0 0 0  0 0 0 0.0760586504 0" type="matrix" in="shadowInnerInner1" result="shadowMatrixInner1"></feColorMatrix>
            <feGaussianBlur stdDeviation="8" in="SourceAlpha" result="shadowBlurInner2"></feGaussianBlur>
            <feOffset dx="19" dy="17" in="shadowBlurInner2" result="shadowOffsetInner2"></feOffset>
            <feComposite in="shadowOffsetInner2" in2="SourceAlpha" operator="arithmetic" k2="-1" k3="1" result="shadowInnerInner2"></feComposite>
            <feColorMatrix values="0 0 0 0 1   0 0 0 0 1   0 0 0 0 1  0 0 0 1 0" type="matrix" in="shadowInnerInner2" result="shadowMatrixInner2"></feColorMatrix>
            <feGaussianBlur stdDeviation="1" in="SourceAlpha" result="shadowBlurInner3"></feGaussianBlur>
            <feOffset dx="0" dy="0" in="shadowBlurInner3" result="shadowOffsetInner3"></feOffset>
            <feComposite in="shadowOffsetInner3" in2="SourceAlpha" operator="arithmetic" k2="-1" k3="1" result="shadowInnerInner3"></feComposite>
            <feColorMatrix values="0 0 0 0 0.854166667   0 0 0 0 0.854166667   0 0 0 0 0.854166667  0 0 0 0.5 0" type="matrix" in="shadowInnerInner3" result="shadowMatrixInner3"></feColorMatrix>
            <feMerge>
                <feMergeNode in="shadowMatrixInner1"></feMergeNode>
                <feMergeNode in="shadowMatrixInner2"></feMergeNode>
                <feMergeNode in="shadowMatrixInner3"></feMergeNode>
            </feMerge>
        </filter>
        <path d="M182.041761,74.274427 C185.00058,71.89523 206.885574,77.7394999 219.448266,102.647569 C232.010959,127.555638 246.438947,174.985269 243.442904,192.36741 C240.446862,209.749551 234.14602,215.100623 228.903105,216.872725 C223.66019,218.644828 213.331607,217.14171 203.054128,192.36741 C192.776649,167.59311 192.439286,149.813032 190.204594,126.680036 C189.542922,119.830561 191.429517,103.775841 186.899052,90.8533968 C183.443752,80.997692 179.082943,76.653624 182.041761,74.274427 Z" id="path-8"></path>
        <filter x="-27.9%" y="-12.2%" width="155.7%" height="124.4%" filterUnits="objectBoundingBox" id="filter-9">
            <feGaussianBlur stdDeviation="10.5" in="SourceAlpha" result="shadowBlurInner1"></feGaussianBlur>
            <feOffset dx="-14" dy="-8" in="shadowBlurInner1" result="shadowOffsetInner1"></feOffset>
            <feComposite in="shadowOffsetInner1" in2="SourceAlpha" operator="arithmetic" k2="-1" k3="1" result="shadowInnerInner1"></feComposite>
            <feColorMatrix values="0 0 0 0 0   0 0 0 0 0   0 0 0 0 0  0 0 0 0.0662081069 0" type="matrix" in="shadowInnerInner1"></feColorMatrix>
        </filter>
        <linearGradient x1="100%" y1="50%" x2="55.9865108%" y2="50%" id="linearGradient-10">
            <stop stop-color="#FFFFFF" offset="0%"></stop>
            <stop stop-color="#F7F7F7" stop-opacity="0" offset="100%"></stop>
        </linearGradient>
        <radialGradient cx="50%" cy="44.074915%" fx="50%" fy="44.074915%" r="55.925085%" gradientTransform="translate(0.500000,0.440749),scale(1.000000,0.998595),rotate(90.000000),scale(1.000000,0.986593),translate(-0.500000,-0.440749)" id="radialGradient-11">
            <stop stop-color="#FFFFFF" offset="0%"></stop>
            <stop stop-color="#F7F7F7" stop-opacity="0" offset="100%"></stop>
        </radialGradient>
        <ellipse id="path-12" cx="55.1547912" cy="42.0246479" rx="53.3562654" ry="41.4242958"></ellipse>
        <filter x="-9.4%" y="-12.1%" width="118.7%" height="124.1%" filterUnits="objectBoundingBox" id="filter-13">
            <feGaussianBlur stdDeviation="6.5" in="SourceAlpha" result="shadowBlurInner1"></feGaussianBlur>
            <feOffset dx="-7" dy="-7" in="shadowBlurInner1" result="shadowOffsetInner1"></feOffset>
            <feComposite in="shadowOffsetInner1" in2="SourceAlpha" operator="arithmetic" k2="-1" k3="1" result="shadowInnerInner1"></feComposite>
            <feColorMatrix values="0 0 0 0 0   0 0 0 0 0   0 0 0 0 0  0 0 0 0.142295063 0" type="matrix" in="shadowInnerInner1"></feColorMatrix>
        </filter>
        <linearGradient x1="50%" y1="50%" x2="53.0552535%" y2="-40.0172004%" id="linearGradient-14">
            <stop stop-color="#FFFFFF" stop-opacity="0.5" offset="0%"></stop>
            <stop stop-color="#000000" stop-opacity="0.5" offset="100%"></stop>
        </linearGradient>
        <path d="M1.35192962,44.0870467 C2.45177058,44.0870467 4.51236208,36.9026865 8.32090298,30.5324915 C10.7965768,26.3916603 14.7536476,22.6228743 17.1289907,21.2993242 C23.1585276,17.9396436 29.3516579,17.275375 34.937969,18.7534111 C40.5242802,20.2314472 45.7889152,25.9721973 52.6321747,25.9721973 C59.4754342,25.9721973 67.9527967,20.2314472 71.0816384,18.7534111 C74.2104801,17.275375 82.1345074,15.9947313 88.9018055,20.2314472 C91.5675661,21.900366 97.0928881,25.2501842 100.182769,29.6715619 C104.936858,36.4742907 107.050682,44.6510182 108.45947,44.0870467 C110.783889,43.1565265 107.645048,25.4454965 97.7652544,16.6831976 C87.8854608,7.92089874 73.377789,0.31791939 54.4307005,0.31791939 C35.483612,0.31791939 22.2201825,8.31100782 18.1653673,11.6742439 C14.1105521,15.03748 10.0806322,18.1441921 5.49883383,26.9769442 C0.917035473,35.8096962 -0.462843257,44.0870467 1.35192962,44.0870467 Z" id="path-15"></path>
        <filter x="-4.1%" y="-10.3%" width="108.3%" height="120.5%" filterUnits="objectBoundingBox" id="filter-16">
            <feGaussianBlur stdDeviation="3.5" in="SourceAlpha" result="shadowBlurInner1"></feGaussianBlur>
            <feOffset dx="-2" dy="0" in="shadowBlurInner1" result="shadowOffsetInner1"></feOffset>
            <feComposite in="shadowOffsetInner1" in2="SourceAlpha" operator="arithmetic" k2="-1" k3="1" result="shadowInnerInner1"></feComposite>
            <feColorMatrix values="0 0 0 0 0.208652211   0 0 0 0 0.208652211   0 0 0 0 0.208652211  0 0 0 0.5 0" type="matrix" in="shadowInnerInner1"></feColorMatrix>
        </filter>
        <path d="M40.833564,184.251215 C44.5364372,191.60633 49.3010149,197.401033 55.1272969,201.635325 C63.6641301,207.839528 87.611782,216.659171 98.2399987,218.010629 C127.71011,221.757977 136.084166,218.845951 151.075972,213.950928 C166.067778,209.055905 185.436699,190.938507 191.050058,181.48539 C195.478334,174.028001 200.124522,143.133755 186.663458,141.741702 C165.086685,139.510379 113.85163,170.785012 87.0040918,161.563291 C43.4072257,146.588431 36.3865005,121.920114 32.6108063,141.741702 C30.0936769,154.956095 32.8345961,169.125932 40.833564,184.251215 Z" id="path-17"></path>
        <filter x="-11.0%" y="-21.1%" width="122.0%" height="142.2%" filterUnits="objectBoundingBox" id="filter-18">
            <feGaussianBlur stdDeviation="6.00000024" in="SourceGraphic"></feGaussianBlur>
        </filter>
        <filter x="-20.1%" y="-38.7%" width="140.3%" height="177.3%" filterUnits="objectBoundingBox" id="filter-19">
            <feGaussianBlur stdDeviation="7" in="SourceAlpha" result="shadowBlurInner1"></feGaussianBlur>
            <feOffset dx="0" dy="-16" in="shadowBlurInner1" result="shadowOffsetInner1"></feOffset>
            <feComposite in="shadowOffsetInner1" in2="SourceAlpha" operator="arithmetic" k2="-1" k3="1" result="shadowInnerInner1"></feComposite>
            <feColorMatrix values="0 0 0 0 0   0 0 0 0 0   0 0 0 0 0  0 0 0 0.5 0" type="matrix" in="shadowInnerInner1"></feColorMatrix>
        </filter>
    </defs>
    <g id="Page-1" stroke="none" stroke-width="1" fill="none" fill-rule="evenodd">
        <g id="01.-Landing" transform="translate(-836.000000, -193.000000)">
            <g id="Group-33" transform="translate(809.000000, 193.000000)">
                <path d="M177.258699,353 C310.605434,353 330.126916,347.403559 330.126916,340.5 C330.126916,333.596441 308.79137,328 177.258699,328 C45.7260275,328 4.59097227e-15,334.25 0,340.5 C-5.88218321e-15,346.75 43.9119637,353 177.258699,353 Z" id="Oval-3" fill="url(#radialGradient-1)" opacity="0.253860972" filter="url(#filter-2)"></path>
                <g id="Group-3" transform="translate(37.000000, 0.000000)">
                    <g id="Group-2">
                        <g id="Path-3" transform="translate(35.542393, 146.253566) scale(-1, 1) translate(-35.542393, -146.253566) ">
                            <use fill="#F8F8F8" fill-rule="evenodd" xlink:href="#path-3"></use>
                            <use fill="black" fill-opacity="1" filter="url(#filter-4)" xlink:href="#path-3"></use>
                        </g>
                        <g id="Oval-5-Copy">
                            <use fill="black" fill-opacity="1" filter="url(#filter-6)" xlink:href="#path-5"></use>
                            <use fill="#F8F8F8" fill-rule="evenodd" xlink:href="#path-5"></use>
                            <use fill="black" fill-opacity="1" filter="url(#filter-7)" xlink:href="#path-5"></use>
                        </g>
                        <g id="Path-3">
                            <use fill="#F8F8F8" fill-rule="evenodd" xlink:href="#path-8"></use>
                            <use fill="black" fill-opacity="1" filter="url(#filter-9)" xlink:href="#path-8"></use>
                        </g>
                        <ellipse id="Oval-2" fill="url(#linearGradient-10)" style="mix-blend-mode: color-burn;" cx="117.503686" cy="146.485915" rx="71.9410319" ry="72.0422535"></ellipse>
                        <ellipse id="Oval-2" fill="url(#radialGradient-11)" cx="146.879607" cy="146.485915" rx="77.9361179" ry="78.0457746"></ellipse>
                        <g id="Group" transform="translate(65.346437, 0.000000)">
                            <g id="Oval-5">
                                <use fill="#F8F8F8" fill-rule="evenodd" xlink:href="#path-12"></use>
                                <use fill="black" fill-opacity="1" filter="url(#filter-13)" xlink:href="#path-12"></use>
                            </g>
                            <ellipse id="Oval" fill="#494646" cx="71.6412776" cy="39.3230634" rx="5.6953317" ry="5.70334507"></ellipse>
                            <ellipse id="Oval" fill="#494646" cx="32.0737101" cy="39.3230634" rx="5.6953317" ry="5.70334507"></ellipse>
                            <g id="Path-4">
                                <use fill="#4353FF" fill-rule="evenodd" xlink:href="#path-15"></use>
                                <use fill="url(#linearGradient-14)" fill-rule="evenodd" xlink:href="#path-15"></use>
                                <use fill="black" fill-opacity="1" filter="url(#filter-16)" xlink:href="#path-15"></use>
                            </g>
                        </g>
                        <g id="Path-6" opacity="0.0554800725" filter="url(#filter-18)" fill-opacity="1" fill="black">
                            <use filter="url(#filter-19)" xlink:href="#path-17"></use>
                        </g>
                    </g>
                </g>
            </g>
        </g>
    </g>
</svg>